<!--?xml version="1.0" encoding="utf-8"?-->
<!-- Svg Vector Icons : http://www.onlinewebfonts.com/icon -->

<svg version="1.1" xmlns="http://www.w3.org/2000/svg" xmlns:xlink="http://www.w3.org/1999/xlink" x="0px" y="0px" viewBox="0 0 256 256" enable-background="new 0 0 256 256" xml:space="preserve">
<metadata> Svg Vector Icons : http://www.onlinewebfonts.com/icon </metadata>
<g><g><path fill="#ffffff" data-title="Layer 0" xs="0" d="M240.1,211.3l-50.9-50.7c-0.7-0.7-1.4-1.2-2.1-1.8c9.8-15.1,15.6-33.1,15.6-52.5c0-53.2-43.1-96.3-96.3-96.3C53.1,10.1,10,53.2,10,106.4c0,53.2,43.2,96.3,96.3,96.3c19.4,0,37.4-5.8,52.5-15.6c0.6,0.7,1.1,1.5,1.7,2.1l50.9,50.7c4,4,9.2,5.9,14.3,5.9s10.4-2,14.3-5.9C248,232.1,248,219.2,240.1,211.3z M106.3,181.9c-41.6,0-75.5-33.9-75.5-75.5c0-41.6,33.9-75.5,75.5-75.5c41.6,0,75.4,33.9,75.4,75.5C181.8,148,147.9,181.9,106.3,181.9z"/><path fill="#ffffff" data-title="Layer 1" xs="1" d="M113.4,130H69c-3.4,0-6.3,2.8-6.3,6.3c0,3.4,2.9,6.3,6.3,6.3h44.4c3.4,0,6.3-2.9,6.3-6.3C119.7,132.8,116.8,130,113.4,130z"/><path fill="#ffffff" data-title="Layer 2" xs="2" d="M102.2,84.4h44.4c3.4,0,6.3-2.9,6.3-6.3c0-3.4-2.9-6.3-6.3-6.3h-44.4c-3.4,0-6.3,2.8-6.3,6.3C95.9,81.5,98.8,84.4,102.2,84.4z"/><path fill="#ffffff" data-title="Layer 3" xs="3" d="M148.9,100.8H69c-3.4,0-6.3,2.9-6.3,6.3c0,3.4,2.9,6.3,6.3,6.3h79.9c3.4,0,6.3-2.9,6.3-6.3C155.1,103.6,152.3,100.8,148.9,100.8z"/></g></g>
</svg>